<?xml version="1.0" standalone="no"?>
<!DOCTYPE svg PUBLIC "-//W3C//DTD SVG 20010904//EN"
 "http://www.w3.org/TR/2001/REC-SVG-20010904/DTD/svg10.dtd">
<svg version="1.0" xmlns="http://www.w3.org/2000/svg"
 width="1500.000000pt" height="1500.000000pt" viewBox="0 0 1500.000000 1500.000000"
 preserveAspectRatio="xMidYMid meet">
<metadata>
Created by potrace 1.11, written by Peter Selinger 2001-2013
</metadata>
<g transform="translate(0.000000,1500.000000) scale(0.100000,-0.100000)"
fill="#000000" stroke="none">
<path d="M7287 14214 c-1 -1 -48 -4 -103 -7 -56 -2 -105 -7 -110 -10 -5 -2
-56 -8 -114 -11 -58 -4 -123 -9 -145 -11 -22 -3 -62 -7 -90 -10 -96 -9 -161
-17 -250 -32 -49 -8 -99 -14 -110 -14 -70 1 -616 -123 -860 -194 -220 -64
-649 -220 -682 -247 -7 -6 -13 -8 -13 -5 0 13 -431 -192 -593 -282 -29 -15
-88 -48 -132 -71 -97 -52 -137 -77 -355 -219 -126 -82 -430 -304 -519 -380
-25 -22 -64 -53 -86 -71 -130 -103 -544 -514 -700 -695 -27 -32 -57 -66 -67
-77 -9 -10 -31 -37 -48 -58 -17 -21 -40 -49 -51 -62 -25 -31 -29 -36 -69 -88
-19 -25 -37 -47 -40 -50 -3 -3 -42 -54 -86 -115 -272 -372 -529 -815 -714
-1235 -57 -129 -148 -354 -152 -377 -2 -10 -6 -20 -9 -23 -12 -10 -176 -525
-194 -608 -2 -10 -20 -83 -39 -165 -20 -81 -35 -151 -34 -155 0 -4 -2 -14 -5
-22 -5 -14 -29 -134 -41 -205 -3 -16 -10 -57 -15 -90 -14 -76 -48 -348 -56
-440 -4 -38 -8 -86 -10 -105 -27 -231 -22 -832 9 -1112 3 -29 8 -80 11 -113 7
-69 14 -129 20 -165 2 -14 7 -47 10 -75 3 -27 10 -72 15 -100 8 -45 16 -90 25
-150 4 -28 9 -52 39 -190 40 -181 70 -300 79 -303 4 -2 5 -7 2 -12 -2 -4 2
-32 11 -61 40 -141 97 -326 105 -344 4 -11 18 -49 30 -85 29 -87 121 -323 153
-394 14 -31 26 -61 26 -66 0 -6 4 -10 9 -10 5 0 8 -6 8 -12 -4 -45 326 -678
390 -749 93 -103 271 -135 404 -71 51 24 93 60 204 170 208 206 421 448 491
557 10 17 24 35 30 40 6 6 42 57 80 115 38 58 72 107 75 110 4 4 63 100 123
203 67 114 184 352 247 502 104 247 211 590 255 815 3 13 11 54 19 90 8 36 17
88 21 116 3 27 8 58 10 68 12 66 26 189 25 236 -6 577 -3 778 14 884 2 11 6
44 10 71 3 28 8 57 10 65 2 8 6 35 9 60 8 59 13 84 41 217 50 231 124 461 225
698 29 67 125 262 145 295 12 19 23 40 24 45 11 45 258 415 361 538 17 21 25
30 94 113 99 118 388 398 491 476 17 12 32 25 35 28 24 27 254 187 410 285 98
61 364 197 461 235 29 12 72 30 95 41 24 10 49 19 56 19 8 0 18 4 23 8 12 10
308 108 355 117 8 2 42 10 75 18 33 9 71 18 85 21 22 4 60 12 145 30 11 2 45
7 75 11 30 4 64 9 75 11 11 2 45 6 75 9 30 3 64 7 75 10 42 8 276 18 420 17
180 -1 268 -6 455 -27 87 -10 287 -46 390 -71 58 -13 116 -27 129 -30 14 -3
28 -7 33 -10 5 -3 19 -7 31 -10 36 -6 256 -80 358 -120 101 -39 428 -197 494
-239 22 -14 47 -28 55 -31 30 -14 277 -179 352 -236 l78 -59 -51 -100 c-65
-131 -103 -212 -103 -224 -1 -5 -4 -12 -7 -15 -29 -23 -289 -711 -314 -830 -2
-8 -8 -28 -14 -43 -6 -15 -10 -31 -9 -35 1 -4 -2 -14 -5 -22 -8 -21 -64 -228
-72 -268 l-7 -32 -61 67 c-100 108 -195 196 -321 298 -62 50 -220 155 -233
155 -7 0 -13 4 -13 9 0 10 -39 27 -52 23 -5 -1 -8 2 -8 8 0 10 -158 89 -270
135 -146 60 -375 125 -495 141 -27 3 -52 8 -55 9 -6 3 -118 16 -185 21 -126 9
-402 2 -465 -11 -14 -3 -45 -7 -70 -9 -113 -10 -364 -76 -525 -139 -366 -142
-668 -353 -954 -667 -89 -97 -301 -404 -301 -435 0 -8 -3 -15 -7 -17 -8 -3
-58 -101 -99 -195 -68 -154 -142 -414 -168 -588 -21 -142 -25 -208 -31 -484
-4 -135 -8 -263 -9 -285 -6 -59 -17 -166 -22 -211 -3 -22 -7 -58 -9 -80 -2
-22 -5 -40 -5 -40 -2 0 -7 -28 -13 -76 -14 -114 -74 -417 -108 -543 -6 -22
-12 -46 -14 -55 -2 -9 -14 -52 -25 -96 -12 -44 -23 -84 -25 -90 -1 -5 -5 -17
-8 -25 -3 -8 -17 -53 -31 -100 -50 -161 -145 -416 -224 -597 -22 -51 -37 -93
-34 -93 4 0 2 -4 -4 -8 -11 -7 -110 -207 -111 -226 -1 -5 -5 -12 -10 -15 -4
-3 -22 -32 -38 -64 -17 -32 -35 -65 -40 -75 -25 -42 -39 -67 -40 -72 0 -3 -8
-16 -16 -30 -36 -56 -79 -131 -79 -136 0 -2 -4 -10 -10 -17 -5 -7 -60 -88
-122 -182 -61 -93 -114 -172 -117 -175 -4 -3 -44 -55 -89 -117 -45 -61 -89
-117 -97 -123 -8 -7 -12 -16 -9 -21 3 -5 1 -9 -4 -9 -5 0 -47 -46 -94 -102
-47 -57 -116 -136 -154 -177 -38 -40 -68 -78 -66 -82 1 -5 -1 -8 -5 -7 -5 2
-58 -47 -119 -107 -61 -61 -137 -134 -170 -164 -132 -120 -156 -147 -187 -210
-29 -59 -32 -74 -32 -156 1 -77 4 -97 27 -140 33 -62 56 -89 138 -156 36 -29
68 -58 72 -63 4 -6 8 -8 8 -4 0 4 15 -7 33 -25 52 -52 301 -246 452 -352 196
-138 477 -313 666 -415 124 -67 436 -220 448 -220 6 0 25 -9 43 -19 42 -25
332 -139 513 -203 199 -70 603 -184 757 -213 13 -3 57 -12 98 -20 99 -20 115
-23 180 -34 129 -23 308 -49 385 -56 17 -1 55 -6 85 -9 61 -8 121 -12 290 -23
240 -15 987 -7 1087 11 10 2 55 7 100 10 45 4 90 8 100 10 10 2 45 7 78 10 86
10 289 43 440 73 72 14 141 27 155 30 14 2 104 25 200 50 96 24 180 46 187 47
7 1 16 5 19 9 4 4 14 7 23 7 50 0 651 215 651 232 0 5 4 7 9 4 8 -6 46 9 156
59 28 12 73 33 100 45 64 28 368 180 420 210 22 12 69 38 105 58 113 60 150
84 150 94 0 5 4 7 9 3 5 -3 16 2 24 10 9 8 18 15 21 15 16 0 378 247 384 262
2 4 8 8 13 8 8 0 118 80 145 105 6 5 23 19 38 30 30 22 210 168 231 188 7 7
68 64 136 127 228 212 420 412 590 614 13 16 29 34 34 40 6 6 24 29 40 50 17
22 39 49 50 61 31 33 106 134 105 140 -1 4 7 14 17 23 44 41 383 544 383 569
0 4 6 14 14 22 13 16 38 60 138 246 62 114 209 415 223 455 1 3 11 25 22 50
11 25 43 106 73 180 29 74 59 149 65 165 12 28 103 306 139 423 56 180 161
639 181 792 3 25 8 52 10 60 2 8 7 38 10 65 3 28 7 59 9 70 2 11 7 49 11 85 4
36 8 72 10 80 2 8 6 54 10 102 3 49 8 97 10 108 7 35 18 329 18 475 1 139 -10
467 -18 535 -2 19 -6 73 -10 120 -4 47 -8 96 -10 110 -2 14 -7 48 -10 75 -12
100 -16 131 -26 195 -6 36 -12 74 -14 85 -12 84 -77 398 -109 530 -129 517
-355 1095 -610 1560 -30 55 -68 124 -83 154 -68 130 -172 200 -308 206 -41 2
-75 -1 -75 -6 0 -4 -7 -6 -15 -3 -23 9 -121 -41 -172 -88 -193 -178 -388 -389
-534 -579 -44 -57 -86 -111 -92 -119 -7 -8 -30 -42 -52 -75 -22 -33 -42 -62
-45 -65 -9 -8 -76 -113 -90 -140 -7 -14 -16 -27 -19 -30 -3 -3 -12 -16 -20
-30 -8 -14 -38 -66 -67 -116 -119 -206 -274 -548 -334 -739 -7 -22 -15 -44
-19 -50 -3 -5 -6 -14 -7 -20 -2 -5 -14 -48 -29 -95 -14 -47 -29 -96 -32 -110
-7 -35 -9 -43 -16 -60 -12 -29 -65 -265 -81 -360 -2 -14 -7 -41 -10 -60 -12
-69 -16 -96 -22 -145 -3 -27 -8 -61 -10 -75 -3 -14 -4 -88 -3 -165 6 -560 0
-733 -36 -955 -53 -328 -142 -653 -250 -905 -49 -116 -67 -155 -128 -275 -86
-167 -219 -392 -264 -445 -5 -5 -24 -32 -42 -58 -28 -41 -133 -175 -214 -275
-29 -35 -353 -359 -392 -392 -220 -184 -391 -305 -628 -444 -65 -38 -305 -155
-412 -201 -91 -39 -370 -137 -425 -150 -8 -2 -78 -19 -155 -39 -220 -54 -405
-83 -660 -102 -167 -12 -536 -6 -635 11 -14 2 -55 6 -92 9 -36 4 -72 8 -80 11
-7 2 -31 7 -53 9 -155 20 -497 102 -610 147 -11 4 -42 15 -70 25 -156 53 -505
212 -630 287 -121 72 -167 102 -275 175 -69 47 -127 88 -130 92 -3 3 -22 19
-42 34 l-37 28 59 119 c33 65 60 125 60 133 0 8 4 16 8 18 4 2 28 48 51 103
24 55 52 118 61 140 10 22 34 83 54 135 20 52 41 104 46 115 26 58 163 486
189 593 6 23 16 60 21 82 l11 40 26 -32 c40 -50 273 -279 318 -313 22 -16 42
-32 45 -36 13 -14 120 -89 129 -89 5 0 11 -4 13 -9 4 -12 190 -124 206 -124 6
0 12 -4 12 -8 0 -12 244 -117 358 -155 173 -56 345 -95 487 -109 33 -4 74 -8
90 -11 17 -3 102 -5 190 -6 148 0 212 4 305 17 19 2 55 7 80 10 169 22 432
100 621 185 187 83 416 224 546 335 101 86 213 193 278 266 89 99 251 319 257
351 2 7 9 17 15 23 33 27 206 405 229 501 4 16 11 35 17 42 5 6 7 12 3 12 -3
0 -1 11 4 25 5 14 12 36 15 48 2 12 9 40 14 62 6 22 12 54 15 70 3 17 8 41 11
55 2 13 7 42 10 65 4 22 8 51 10 65 12 74 23 272 30 530 3 91 7 191 9 223 3
32 8 93 11 135 3 42 8 95 11 117 3 22 7 51 9 65 2 14 6 50 10 81 3 31 8 67 11
80 2 13 9 53 14 89 5 36 21 124 35 195 34 169 63 288 131 525 22 76 103 320
114 345 5 11 29 72 53 135 42 110 167 398 186 430 5 8 31 58 58 110 87 173
223 402 341 579 65 95 122 181 127 190 6 9 12 18 15 21 3 3 31 39 63 80 72 95
63 83 128 165 31 39 65 80 75 91 11 12 36 42 57 67 89 107 350 375 474 487
104 95 118 108 135 128 16 19 41 61 43 72 1 3 7 19 14 35 19 46 25 145 11 195
-7 25 -11 45 -9 45 1 0 -10 20 -25 44 -32 50 -49 68 -126 131 -30 25 -72 60
-92 79 -21 19 -48 41 -60 49 -13 9 -25 18 -28 22 -14 15 -118 97 -235 184 -71
53 -135 100 -142 106 -58 47 -429 283 -558 355 -348 194 -635 328 -975 455
-198 74 -486 165 -650 205 -113 28 -354 83 -390 89 -56 9 -92 16 -148 27 -29
6 -65 12 -80 14 -15 2 -40 6 -57 9 -42 6 -137 20 -155 21 -17 1 -139 15 -185
21 -34 4 -181 16 -240 19 -22 2 -53 4 -70 5 l-30 3 35 7 c30 6 26 8 -30 10
-81 3 -570 7 -573 4z m678 -778 c22 -3 69 -8 105 -11 132 -11 176 -16 228 -25
29 -5 56 -9 60 -8 14 4 347 -56 457 -82 28 -6 61 -14 75 -16 14 -3 48 -11 75
-19 28 -8 61 -17 75 -19 154 -30 643 -202 895 -314 110 -49 480 -236 483 -244
2 -4 8 -8 13 -8 6 0 62 -32 126 -71 65 -39 121 -71 126 -72 5 -1 20 -11 32
-22 33 -30 106 -70 119 -67 6 2 8 0 4 -3 -6 -7 63 -65 76 -65 4 0 142 -100
201 -145 10 -8 22 -15 26 -15 20 0 15 -33 -9 -59 -97 -102 -166 -176 -227
-246 -38 -44 -74 -85 -80 -91 -5 -6 -26 -30 -45 -54 -19 -24 -50 -62 -69 -84
-46 -56 -226 -295 -285 -381 -27 -38 -52 -74 -56 -78 -4 -5 -41 16 -81 45 -41
30 -89 63 -106 73 -18 11 -33 23 -33 27 0 4 -6 8 -13 8 -7 0 -22 8 -33 18 -10
10 -38 29 -61 42 -24 14 -105 61 -180 104 -76 44 -153 88 -170 98 -18 11 -33
17 -33 13 0 -3 -13 3 -29 14 -16 12 -32 21 -34 21 -3 0 -43 18 -89 39 -135 64
-343 145 -498 195 -140 45 -375 110 -442 121 -18 3 -40 8 -48 10 -28 8 -204
39 -283 50 -27 3 -56 8 -66 10 -31 6 -177 19 -341 30 -161 11 -505 6 -650 -10
-25 -3 -67 -7 -95 -10 -60 -6 -130 -15 -165 -20 -14 -2 -43 -6 -65 -10 -23 -3
-52 -7 -65 -10 -30 -6 -135 -25 -170 -31 -14 -3 -33 -7 -42 -10 -9 -3 -25 -7
-37 -9 -145 -28 -553 -156 -696 -219 -16 -8 -75 -33 -130 -57 -87 -37 -236
-111 -412 -205 -29 -15 -53 -31 -53 -36 0 -4 -5 -8 -12 -8 -22 0 -357 -220
-406 -267 -7 -7 -16 -13 -20 -13 -4 0 -23 -14 -42 -30 -19 -16 -40 -33 -45
-37 -29 -22 -113 -90 -135 -109 -14 -12 -47 -42 -75 -66 -58 -49 -333 -324
-385 -384 -102 -116 -149 -174 -249 -310 -61 -82 -120 -162 -131 -179 -49 -72
-100 -156 -100 -165 0 -6 -4 -10 -8 -10 -5 0 -19 -19 -31 -42 -12 -24 -40 -74
-62 -113 -59 -104 -180 -353 -237 -490 -47 -113 -147 -396 -155 -440 -2 -11
-7 -27 -10 -35 -18 -42 -104 -408 -105 -450 -1 -8 -6 -37 -12 -65 -35 -163
-64 -518 -63 -750 1 -60 2 -200 3 -310 0 -110 -4 -230 -9 -265 -6 -36 -13 -83
-16 -105 -4 -22 -11 -60 -17 -85 -5 -25 -12 -56 -14 -70 -9 -46 -62 -255 -72
-280 -5 -14 -10 -27 -10 -30 0 -3 -3 -12 -6 -20 -2 -8 -12 -40 -22 -70 -15
-50 -90 -248 -117 -310 -5 -14 -10 -28 -9 -32 1 -5 -2 -8 -8 -8 -5 0 -10 -6
-10 -13 0 -15 -137 -287 -175 -347 -14 -22 -25 -42 -25 -44 0 -3 -13 -24 -29
-48 -15 -24 -49 -75 -74 -113 -51 -81 -188 -266 -223 -304 -13 -14 -24 -29
-24 -32 0 -4 -6 -9 -14 -12 -9 -4 -30 34 -70 126 -32 73 -61 141 -66 152 -63
141 -225 626 -244 727 -2 13 -13 59 -24 103 -12 44 -23 91 -26 105 -2 14 -11
57 -20 95 -18 88 -25 120 -32 165 -2 19 -7 46 -10 60 -2 14 -6 36 -9 49 -2 14
-7 47 -10 75 -3 28 -8 60 -10 71 -2 11 -7 45 -10 75 -3 30 -8 70 -10 89 -2 19
-7 71 -10 115 -3 45 -8 108 -11 141 -8 75 -7 540 0 655 12 178 18 240 37 395
16 135 53 370 73 465 3 14 8 39 12 55 65 325 226 827 367 1139 61 136 216 442
288 566 85 150 270 431 362 553 37 49 67 90 67 92 0 2 11 16 24 31 34 41 137
166 164 200 12 16 53 62 90 103 37 41 66 79 64 85 -2 6 -1 8 2 5 3 -3 86 74
184 170 97 97 195 192 217 211 86 76 292 247 338 279 26 19 47 38 47 43 0 4 6
8 14 8 7 0 24 10 38 23 13 12 44 35 69 52 24 16 46 32 49 35 3 3 64 44 135 91
169 111 322 203 473 282 67 35 119 67 115 72 -5 4 -3 5 4 2 16 -10 44 3 36 16
-3 6 -1 7 6 3 6 -4 37 6 68 23 31 17 63 31 70 31 7 0 13 5 13 10 0 6 8 10 18
10 10 0 22 4 28 8 5 5 50 26 99 46 50 21 104 43 120 51 30 13 215 80 355 128
246 85 744 204 975 233 63 7 131 16 145 19 20 4 241 24 360 34 100 8 836 5
905 -3z m5055 -3593 c23 -54 51 -116 61 -138 9 -23 29 -72 43 -110 15 -39 30
-79 36 -90 23 -48 100 -285 155 -475 43 -150 104 -412 130 -560 5 -28 32 -205
40 -265 3 -22 7 -53 10 -70 2 -16 7 -61 11 -100 3 -38 7 -86 9 -105 22 -207
22 -777 1 -955 -2 -16 -7 -62 -11 -102 -3 -39 -8 -82 -10 -95 -2 -13 -6 -50
-10 -83 -6 -57 -39 -272 -50 -325 -2 -14 -12 -61 -21 -105 -33 -170 -108 -452
-174 -660 -82 -257 -260 -673 -399 -930 -21 -38 -113 -202 -126 -224 -78 -129
-229 -363 -250 -388 -5 -6 -35 -46 -65 -88 -30 -42 -85 -115 -123 -161 -37
-46 -65 -84 -63 -84 3 0 -5 -10 -17 -23 -12 -12 -39 -43 -60 -67 -21 -25 -62
-72 -90 -105 -106 -124 -548 -555 -568 -555 -4 0 -9 -3 -11 -8 -3 -6 -89 -81
-138 -119 -8 -7 -44 -35 -80 -63 -36 -28 -73 -57 -83 -65 -9 -8 -21 -15 -27
-15 -5 0 -13 -6 -17 -12 -4 -7 -51 -42 -103 -77 -52 -35 -96 -68 -98 -73 -2
-4 -8 -8 -13 -8 -6 0 -42 -22 -82 -48 -186 -126 -543 -320 -792 -432 -63 -29
-365 -150 -385 -156 -8 -2 -60 -19 -115 -38 -55 -19 -147 -48 -205 -66 -58
-17 -112 -34 -120 -37 -8 -3 -22 -7 -30 -8 -20 -2 -271 -65 -290 -72 -8 -3
-24 -7 -35 -8 -40 -4 -140 -22 -140 -25 0 -2 -29 -7 -275 -45 -19 -3 -60 -8
-90 -10 -30 -3 -66 -7 -80 -10 -14 -2 -52 -6 -85 -9 -33 -3 -98 -9 -145 -13
-183 -16 -901 -8 -1060 12 -19 2 -78 9 -130 15 -143 15 -184 20 -200 25 -8 2
-37 7 -65 11 -69 8 -329 60 -452 90 -115 27 -408 110 -438 124 -11 4 -63 23
-115 40 -52 17 -142 50 -200 73 -58 23 -107 42 -110 42 -3 1 -31 13 -64 28
-32 15 -60 27 -63 27 -7 0 -388 184 -393 191 -3 3 -18 12 -35 20 -52 26 -167
91 -232 130 -33 21 -64 35 -67 32 -3 -4 -6 -2 -6 4 0 6 -24 26 -52 43 -29 18
-71 45 -93 59 -55 36 -314 220 -346 246 l-26 21 21 20 c48 45 215 227 301 328
28 32 55 63 60 70 6 6 28 34 50 61 22 28 43 52 46 55 3 3 39 50 80 105 41 55
82 109 92 119 9 11 17 23 17 27 0 4 6 14 13 21 7 7 37 48 65 90 29 43 55 78
57 78 2 0 44 -29 92 -63 48 -35 108 -76 133 -92 25 -15 47 -31 50 -34 3 -3 16
-13 30 -21 14 -8 72 -43 130 -77 58 -35 139 -80 180 -101 41 -20 77 -39 80
-42 6 -7 241 -118 290 -137 19 -8 45 -18 58 -23 12 -6 32 -14 45 -19 175 -74
630 -208 792 -234 17 -3 41 -8 55 -11 27 -6 54 -10 170 -27 41 -5 86 -12 100
-14 14 -2 50 -7 80 -10 30 -3 75 -8 100 -10 240 -26 670 -19 940 15 41 5 95
12 120 15 25 3 72 10 104 16 33 6 68 11 78 12 10 1 18 4 18 7 0 3 10 5 23 6
32 1 78 10 197 40 58 14 114 27 125 30 37 7 299 91 395 127 291 106 653 288
910 456 47 30 245 170 275 193 6 5 35 27 65 50 30 24 60 48 66 53 6 6 31 27
54 46 150 121 438 409 560 559 25 30 48 57 51 60 3 3 45 57 92 120 48 63 94
124 103 135 9 11 21 30 27 43 5 12 14 22 19 22 4 0 8 4 8 10 0 8 38 71 58 95
56 68 317 558 307 576 -4 5 -2 9 2 9 5 0 17 19 27 43 9 23 21 50 26 59 35 64
160 422 196 561 1 4 2 8 4 10 1 1 3 9 5 17 2 8 20 84 39 167 33 140 78 395 91
518 3 28 8 68 10 90 8 80 19 333 18 435 0 58 -2 198 -2 313 -1 114 0 210 2
215 3 4 7 30 11 57 3 28 8 60 10 71 2 12 7 39 10 60 28 171 135 536 219 741
58 140 214 458 244 498 16 20 63 95 63 99 0 4 68 105 142 212 57 80 171 224
179 224 3 0 25 -44 49 -97z m-5332 -717 c60 -6 189 -27 237 -40 6 -1 30 -8 55
-15 70 -18 159 -51 228 -82 35 -16 65 -29 67 -29 3 0 39 -21 82 -46 43 -26 84
-47 91 -47 6 0 12 -4 12 -7 0 -4 31 -30 68 -57 104 -76 172 -138 262 -240 75
-84 83 -95 144 -186 144 -219 230 -452 271 -734 10 -72 6 -443 -5 -443 -3 0
-7 -16 -8 -35 -2 -19 -14 -77 -28 -128 -13 -50 -26 -100 -29 -109 -9 -40 -80
-208 -113 -268 -119 -220 -298 -433 -468 -556 -14 -10 -32 -25 -39 -31 -8 -7
-16 -13 -18 -13 -3 0 -31 -18 -63 -39 -54 -36 -235 -132 -259 -137 -5 -1 -40
-14 -76 -28 -116 -44 -265 -78 -409 -93 -82 -8 -279 -8 -345 2 -78 10 -108 15
-135 20 -14 3 -35 7 -47 9 -52 10 -184 51 -253 78 -340 134 -612 361 -823 685
-15 24 -27 46 -27 49 0 4 -6 15 -13 23 -31 37 -128 277 -153 376 -11 45 -11
44 -27 125 -34 167 -38 369 -12 570 1 8 5 31 9 50 4 19 8 42 10 50 26 138 121
378 203 515 30 50 154 217 192 258 180 197 404 353 631 440 36 13 74 28 85 32
26 10 29 11 100 29 113 30 210 46 300 52 50 4 91 7 92 8 4 3 145 -3 211 -8z"/>
<path d="M7938 14203 c7 -3 16 -2 19 1 4 3 -2 6 -13 5 -11 0 -14 -3 -6 -6z"/>
</g>
</svg>
